<svg
                                    id="13b00ea4-09f0-4b63-a245-c60008381c64" data-name="Warstwa 1" xmlns="http://www.w3.org/2000/svg" width="154.3" height="965.25" viewBox="0 0 154.3 965.25">
                                    <defs>
                                        <style>
                                            .\36 2d1123e-d4f5-40ba-9a81-599d88ad703b {
                                            fill: #fff;
                                            }
                                            .\30 b9fa9aa-20ce-4ee5-8beb-9d9324080f1a, .\32 d814967-c797-4d80-992c-6a645f133d54, .\36 9de961b-4ffd-46e4-b198-b86a1bb1c9e3, .\37 59eb197-cb57-463f-9864-3131dd57c32c {
                                            fill: none;
                                            stroke: #fff;
                                            stroke-miterlimit: 10;
                                            }
                                            .\30 b9fa9aa-20ce-4ee5-8beb-9d9324080f1a, .\32 d814967-c797-4d80-992c-6a645f133d54, .\37 59eb197-cb57-463f-9864-3131dd57c32c {
                                            stroke-width: 0.75px;
                                            }
                                            .\32 d814967-c797-4d80-992c-6a645f133d54 {
                                            stroke-dasharray: 11.99 11.99;
                                            }
                                            .\37 59eb197-cb57-463f-9864-3131dd57c32c {
                                            stroke-dasharray: 12;
                                            }
                                        </style>
                                    </defs>
                                    <title>process-chart-a-mobile</title>
                                    <circle
                                        class="62d1123e-d4f5-40ba-9a81-599d88ad703b" cx="76.84" cy="4.58" r="4.58"/>
                                    <circle
                                        class="62d1123e-d4f5-40ba-9a81-599d88ad703b" cx="76.84" cy="156.89" r="4.58"/>
                                    <g>
                                        <path
                                            class="0b9fa9aa-20ce-4ee5-8beb-9d9324080f1a" d="M2063.53,2628.91q-3,0-6-.23" transform="translate(-1986.07 -2471.64)"/>
                                        <path
                                            class="2d814967-c797-4d80-992c-6a645f133d54" d="M2045.69,2626.82a76.36,76.36,0,0,1,5.91-149.66" transform="translate(-1986.07 -2471.64)"/>
                                        <path
                                            class="0b9fa9aa-20ce-4ee5-8beb-9d9324080f1a" d="M2057.53,2476.46q3-.23,6-0.23" transform="translate(-1986.07 -2471.64)"/>
                                    </g>
                                    <path
                                        class="69de961b-4ffd-46e4-b198-b86a1bb1c9e3" d="M2063.53,2475.58a76.34,76.34,0,0,1,0,152.68" transform="translate(-1986.07 -2471.64)"/>
                                    <circle
                                        class="62d1123e-d4f5-40ba-9a81-599d88ad703b" cx="76.84" cy="462.2" r="4.58"/>
                                    <g>
                                        <path
                                            class="0b9fa9aa-20ce-4ee5-8beb-9d9324080f1a" d="M2063.53,2934.23q-3,0-6-.23" transform="translate(-1986.07 -2471.64)"/>
                                        <path
                                            class="2d814967-c797-4d80-992c-6a645f133d54" d="M2045.69,2932.13a76.36,76.36,0,0,1,5.91-149.66" transform="translate(-1986.07 -2471.64)"/>
                                        <path
                                            class="0b9fa9aa-20ce-4ee5-8beb-9d9324080f1a" d="M2057.53,2781.78q3-.23,6-0.23" transform="translate(-1986.07 -2471.64)"/>
                                    </g>
                                    <path
                                        class="69de961b-4ffd-46e4-b198-b86a1bb1c9e3" d="M2063.53,2780.9a76.34,76.34,0,0,1,0,152.68" transform="translate(-1986.07 -2471.64)"/>
                                    <circle
                                        class="62d1123e-d4f5-40ba-9a81-599d88ad703b" cx="77.46" cy="309.38" r="4.58"/>
                                    <circle
                                        class="62d1123e-d4f5-40ba-9a81-599d88ad703b" cx="76.84" cy="960.66" r="4.58"/>
                                    <g>
                                        <path
                                            class="0b9fa9aa-20ce-4ee5-8beb-9d9324080f1a" d="M2063.53,3432.69q-3,0-6-.23" transform="translate(-1986.07 -2471.64)"/>
                                        <path
                                            class="2d814967-c797-4d80-992c-6a645f133d54" d="M2045.69,3430.59a76.36,76.36,0,0,1,5.91-149.66" transform="translate(-1986.07 -2471.64)"/>
                                        <path
                                            class="0b9fa9aa-20ce-4ee5-8beb-9d9324080f1a" d="M2057.53,3280.24q3-.23,6-0.23" transform="translate(-1986.07 -2471.64)"/>
                                    </g>
                                    <path
                                        class="69de961b-4ffd-46e4-b198-b86a1bb1c9e3" d="M2063.53,3279.36a76.34,76.34,0,0,1,0,152.68" transform="translate(-1986.07 -2471.64)"/>
                                    <g>
                                        <path
                                            class="0b9fa9aa-20ce-4ee5-8beb-9d9324080f1a" d="M2062.92,2781.4q3,0,6-.23" transform="translate(-1986.07 -2471.64)"/>
                                        <path
                                            class="2d814967-c797-4d80-992c-6a645f133d54" d="M2080.75,2779.31a76.36,76.36,0,0,0-5.91-149.66" transform="translate(-1986.07 -2471.64)"/>
                                        <path
                                            class="0b9fa9aa-20ce-4ee5-8beb-9d9324080f1a" d="M2068.91,2629q-3-.23-6-0.23" transform="translate(-1986.07 -2471.64)"/>
                                    </g>
                                    <path
                                        class="69de961b-4ffd-46e4-b198-b86a1bb1c9e3" d="M2062.92,2628.08a76.34,76.34,0,0,0,0,152.68" transform="translate(-1986.07 -2471.64)"/>
                                    <circle
                                        class="62d1123e-d4f5-40ba-9a81-599d88ad703b" cx="76.84" cy="577.51" r="4.58"/>
                                    <circle
                                        class="62d1123e-d4f5-40ba-9a81-599d88ad703b" cx="76.84" cy="692.83" r="4.58"/>
                                    <circle
                                        class="62d1123e-d4f5-40ba-9a81-599d88ad703b" cx="76.82" cy="807.99" r="4.58"/>
                                    <path
                                        class="69de961b-4ffd-46e4-b198-b86a1bb1c9e3" d="M2062.92,3279.36a57.52,57.52,0,0,1,0-115,57.52,57.52,0,0,1,0-115,57.52,57.52,0,0,1,0-115" transform="translate(-1986.07 -2471.64)"/>
                                    <path
                                        class="759eb197-cb57-463f-9864-3131dd57c32c" d="M2062.92,3279.36a57.52,57.52,0,0,0,0-115,57.52,57.52,0,0,0,0-115,57.52,57.52,0,0,0,0-115" transform="translate(-1986.07 -2471.64)"/>
                                </svg>