<svg
                                                id="effc65e5-5413-48e1-adc0-927dbc21a93c" data-name="Warstwa 1" xmlns="http://www.w3.org/2000/svg" width="16.8" height="15.29" viewBox="0 0 16.8 15.29">
                                                <defs>
                                                    <style>.\30 0e19c8b-68b0-4289-aa6e-9e889659cec9{fill:#ff5e00;}</style>
                                                </defs>
                                                <title>icon-search</title>
                                                <path
                                                    class="00e19c8b-68b0-4289-aa6e-9e889659cec9" d="M7450.62,452.34a6,6,0,1,1-6-6A6,6,0,0,1,7450.62,452.34Zm-10.36,0a4.31,4.31,0,1,0,4.31-4.31A4.31,4.31,0,0,0,7440.27,452.34Z" transform="translate(-7438.53 -446.29)"/>
                                                <path
                                                    class="00e19c8b-68b0-4289-aa6e-9e889659cec9" d="M7449.25,454.76l5.8,5a0.52,0.52,0,0,1,.15.81l-0.65.75a0.5,0.5,0,0,1-.79.07l-5.87-5.1" transform="translate(-7438.53 -446.29)"/>
                                            </svg>