<svg
                                        id="381ef0da-eae1-47f0-8942-3277defccee8" data-name="Warstwa 1" xmlns="http://www.w3.org/2000/svg" width="88.45" height="55.67" viewBox="0 0 88.45 55.67">
                                        <defs>
                                            <style>.\38 c0d7497-861c-4cda-97b2-8bfcdad12fd9{fill:#ed1f24;}.\38 1d367a6-aaee-4852-988d-68fb927278b6,.ed45aefc-3c36-4dd8-89f2-80f5f0630a76{fill:none;stroke:#ed1f24;stroke-linecap:round;}.\38 1d367a6-aaee-4852-988d-68fb927278b6{stroke-miterlimit:10;}.ed45aefc-3c36-4dd8-89f2-80f5f0630a76{stroke-linejoin:round;}</style>
                                        </defs>
                                        <title>Demo_ikonkiPopr_MC_20160615</title>
                                        <path
                                            class="8c0d7497-861c-4cda-97b2-8bfcdad12fd9" d="M497.16,389.87a2.59,2.59,0,0,0,2.68-2.24,0.27,0.27,0,0,1,.29-0.26h1.06a0.24,0.24,0,0,1,.24.26,1.37,1.37,0,0,1,0,.26,4.21,4.21,0,0,1-4.25,3.45c-2.53,0-4.49-1.8-4.49-4.88v-1.67c0-3.08,1.94-4.88,4.49-4.88a4.24,4.24,0,0,1,4.27,3.61,0.76,0.76,0,0,0,0,.13,0.25,0.25,0,0,1-.24.26h-1.06a0.31,0.31,0,0,1-.31-0.29,2.59,2.59,0,0,0-2.68-2.24c-1.65,0-2.86,1.19-2.86,3.3v1.89C494.3,388.7,495.53,389.87,497.16,389.87Z" transform="translate(-471.05 -347.34)"/>
                                        <path
                                            class="8c0d7497-861c-4cda-97b2-8bfcdad12fd9" d="M508.71,379.9c2.53,0,4.49,1.8,4.49,4.88v1.67c0,3.08-2,4.88-4.49,4.88s-4.49-1.8-4.49-4.88v-1.67C504.22,381.71,506.15,379.9,508.71,379.9Zm0,10c1.65,0,2.84-1.17,2.84-3.3v-1.89c0-2.13-1.19-3.3-2.84-3.3s-2.82,1.17-2.82,3.3v1.89C505.89,388.7,507.08,389.87,508.71,389.87Z" transform="translate(-471.05 -347.34)"/>
                                        <path
                                            class="8c0d7497-861c-4cda-97b2-8bfcdad12fd9" d="M523.32,390.75v-1a3.51,3.51,0,0,1-3.15,1.63c-2.42,0-4.18-1.72-4.18-4.93v-1.63c0-3.17,1.72-4.88,4.18-4.88a3.49,3.49,0,0,1,3.15,1.63v-5.43a0.37,0.37,0,0,1,.37-0.37h0.92a0.37,0.37,0,0,1,.37.37v14.65a0.36,0.36,0,0,1-.37.37h-0.92A0.36,0.36,0,0,1,523.32,390.75Zm0-4.18v-2c0-2-1.14-3.19-2.84-3.19s-2.82,1.28-2.82,3.32v1.87c0,2,1.08,3.3,2.82,3.3S523.32,388.59,523.32,386.57Z" transform="translate(-471.05 -347.34)"/>
                                        <path
                                            class="8c0d7497-861c-4cda-97b2-8bfcdad12fd9" d="M532.76,389.87a2.61,2.61,0,0,0,2.68-1.87,0.37,0.37,0,0,1,.35-0.26h1a0.25,0.25,0,0,1,.26.26,1.5,1.5,0,0,1-.09.33,4.27,4.27,0,0,1-4.22,3c-2.55,0-4.53-1.8-4.53-4.88v-1.67c0-3.08,2-4.88,4.51-4.88s4.49,1.85,4.49,4.86v1.1a0.36,0.36,0,0,1-.4.35H529.9v0.48A2.88,2.88,0,0,0,532.76,389.87Zm2.82-5.28c0-2-1.19-3.21-2.84-3.21s-2.84,1.17-2.84,3.21v0.31h5.68v-0.31Z" transform="translate(-471.05 -347.34)"/>
                                        <polyline
                                            class="81d367a6-aaee-4852-988d-68fb927278b6" points="73.89 31.13 84.63 37.72 73.89 43.78"/>
                                        <polyline
                                            class="81d367a6-aaee-4852-988d-68fb927278b6" points="16.76 31.13 6.01 37.72 10.59 40.3"/>
                                        <path
                                            class="81d367a6-aaee-4852-988d-68fb927278b6" d="M552,365.3a7,7,0,0,1,7-7" transform="translate(-471.05 -347.34)"/>
                                        <path
                                            class="81d367a6-aaee-4852-988d-68fb927278b6" d="M552,365.3a7,7,0,0,0-7-7" transform="translate(-471.05 -347.34)"/>
                                        <path
                                            class="81d367a6-aaee-4852-988d-68fb927278b6" d="M552,351.3a7,7,0,0,0,7,7" transform="translate(-471.05 -347.34)"/>
                                        <path
                                            class="81d367a6-aaee-4852-988d-68fb927278b6" d="M552,351.3a7,7,0,0,1-7,7" transform="translate(-471.05 -347.34)"/>
                                        <path
                                            class="81d367a6-aaee-4852-988d-68fb927278b6" d="M539.22,372.8a5.5,5.5,0,0,1,5.5-5.5" transform="translate(-471.05 -347.34)"/>
                                        <path
                                            class="81d367a6-aaee-4852-988d-68fb927278b6" d="M539.23,372.8a5.49,5.49,0,0,0-5.48-5.5" transform="translate(-471.05 -347.34)"/>
                                        <path
                                            class="81d367a6-aaee-4852-988d-68fb927278b6" d="M539.22,361.8a5.5,5.5,0,0,0,5.5,5.5" transform="translate(-471.05 -347.34)"/>
                                        <path
                                            class="81d367a6-aaee-4852-988d-68fb927278b6" d="M539.23,361.8a5.49,5.49,0,0,1-5.48,5.5" transform="translate(-471.05 -347.34)"/>
                                        <path
                                            class="ed45aefc-3c36-4dd8-89f2-80f5f0630a76" d="M477,390.29a5.49,5.49,0,0,0,5.48-5.5h0a5.5,5.5,0,0,0,5.5,5.5,5.5,5.5,0,0,0-5.5,5.5h0A5.49,5.49,0,0,0,477,390.29Z" transform="translate(-471.05 -347.34)"/>
                                        <path
                                            class="81d367a6-aaee-4852-988d-68fb927278b6" d="M528,354.78a3.47,3.47,0,0,1,3.47-3.47" transform="translate(-471.05 -347.34)"/>
                                        <path
                                            class="81d367a6-aaee-4852-988d-68fb927278b6" d="M528,354.78a3.46,3.46,0,0,0-3.46-3.47" transform="translate(-471.05 -347.34)"/>
                                        <path
                                            class="81d367a6-aaee-4852-988d-68fb927278b6" d="M528,347.84a3.47,3.47,0,0,0,3.47,3.47" transform="translate(-471.05 -347.34)"/>
                                        <path
                                            class="81d367a6-aaee-4852-988d-68fb927278b6" d="M528,347.84a3.46,3.46,0,0,1-3.46,3.47" transform="translate(-471.05 -347.34)"/>
                                        <path
                                            class="81d367a6-aaee-4852-988d-68fb927278b6" d="M475,402.51a3.47,3.47,0,0,1,3.47-3.47" transform="translate(-471.05 -347.34)"/>
                                        <path
                                            class="81d367a6-aaee-4852-988d-68fb927278b6" d="M475,402.51a3.46,3.46,0,0,0-3.46-3.47" transform="translate(-471.05 -347.34)"/>
                                        <path
                                            class="81d367a6-aaee-4852-988d-68fb927278b6" d="M475,395.57a3.47,3.47,0,0,0,3.47,3.47" transform="translate(-471.05 -347.34)"/>
                                        <path
                                            class="81d367a6-aaee-4852-988d-68fb927278b6" d="M475,395.57a3.46,3.46,0,0,1-3.46,3.47" transform="translate(-471.05 -347.34)"/>
                                    </svg>