<svg
                                        id="7fb54dee-ca0d-4341-8879-35f867a2490c" data-name="Warstwa 1" xmlns="http://www.w3.org/2000/svg" width="82.97" height="60.25" viewBox="0 0 82.97 60.25">
                                        <defs>
                                            <style>.\30 bda36ae-c5b3-4b71-ac75-e7f604077ab3{fill:none;stroke:#ed1f24;stroke-linecap:round;stroke-linejoin:round;}</style>
                                        </defs>
                                        <title>demo_home+about+join_MC_20160525</title>
                                        <path
                                            class="0bda36ae-c5b3-4b71-ac75-e7f604077ab3" d="M2894.7,2678.92a31,31,0,0,1-6.53.69c-13.94,0-25.24-9.12-25.24-20.37s11.3-20.37,25.24-20.37,25.24,9.12,25.24,20.37c0,6.2-3.44,11.76-8.86,15.49" transform="translate(-2830.95 -2638.38)"/>
                                        <polyline
                                            class="0bda36ae-c5b3-4b71-ac75-e7f604077ab3" points="73.61 36.36 77.63 47.29 63.76 40.54"/>
                                        <path
                                            class="0bda36ae-c5b3-4b71-ac75-e7f604077ab3" d="M2850.16,2691.39a31,31,0,0,0,6.53.69c13.94,0,25.24-9.12,25.24-20.37s-11.3-20.37-25.24-20.37-25.24,9.12-25.24,20.37c0,6.2,3.44,11.76,8.86,15.49" transform="translate(-2830.95 -2638.38)"/>
                                        <polyline
                                            class="0bda36ae-c5b3-4b71-ac75-e7f604077ab3" points="9.36 48.82 5.34 59.75 19.21 53.01"/>
                                    </svg>