<svg
                                        id="88686d92-443c-48ce-a314-347f1cf0a69c" data-name="Warstwa 1" xmlns="http://www.w3.org/2000/svg" width="108.24" height="59.38" viewBox="0 0 108.24 59.38">
                                        <defs>
                                            <style>.e45ee043-6ad4-4a67-994b-f82c256615d1{fill:#ed1f24;}</style>
                                        </defs>
                                        <title>demo_home+about+join_MC_20160525</title>
                                        <path
                                            class="e45ee043-6ad4-4a67-994b-f82c256615d1" d="M3581.24,2702.57h-24.89a0.5,0.5,0,0,1-.5-0.5v-3.24a0.5,0.5,0,0,1,.5-0.5h5.55a0.5,0.5,0,0,1,0,1h-5.05v2.24h23.89v-2.24h-5.05a0.5,0.5,0,1,1,0-1h5.55a0.5,0.5,0,0,1,.5.5v3.24A0.5,0.5,0,0,1,3581.24,2702.57Z" transform="translate(-3496.06 -2643.19)"/>
                                        <path
                                            class="e45ee043-6ad4-4a67-994b-f82c256615d1" d="M3575.69,2699.34a0.5,0.5,0,0,1-.5-0.5v-7.67H3562.4v7.67a0.5,0.5,0,0,1-1,0v-8.17a0.5,0.5,0,0,1,.5-0.5h13.79a0.5,0.5,0,0,1,.5.5v8.17A0.5,0.5,0,0,1,3575.69,2699.34Z" transform="translate(-3496.06 -2643.19)"/>
                                        <path
                                            class="e45ee043-6ad4-4a67-994b-f82c256615d1" d="M3543.36,2702.57h-26.64a3.16,3.16,0,0,1-3.15-3.15v-38.35a3.16,3.16,0,0,1,3.15-3.15h26.64a3.16,3.16,0,0,1,3.15,3.15v38.35A3.16,3.16,0,0,1,3543.36,2702.57Zm-26.64-43.65a2.15,2.15,0,0,0-2.15,2.15v38.35a2.15,2.15,0,0,0,2.15,2.15h26.64a2.15,2.15,0,0,0,2.15-2.15v-38.35a2.15,2.15,0,0,0-2.15-2.15h-26.64Z" transform="translate(-3496.06 -2643.19)"/>
                                        <path
                                            class="e45ee043-6ad4-4a67-994b-f82c256615d1" d="M3599,2686.69h-53a0.5,0.5,0,0,1-.5-0.5v-25.11a2.15,2.15,0,0,0-2.15-2.15h-5.19a0.5,0.5,0,0,1-.5-0.5v-10.26a0.5,0.5,0,0,1,.5-0.5H3599a0.5,0.5,0,0,1,.5.5v38A0.5,0.5,0,0,1,3599,2686.69Zm-52.46-1h52v-37h-59.8v9.26h4.69a3.16,3.16,0,0,1,3.15,3.15v24.61Z" transform="translate(-3496.06 -2643.19)"/>
                                        <path
                                            class="e45ee043-6ad4-4a67-994b-f82c256615d1" d="M3508.89,2680.52h-12.33a0.5,0.5,0,0,1-.5-0.5v-19a0.5,0.5,0,0,1,.5-0.5h12.33a0.5,0.5,0,0,1,.5.5v19A0.5,0.5,0,0,1,3508.89,2680.52Zm-11.83-1h11.33v-18h-11.33v18Z" transform="translate(-3496.06 -2643.19)"/>
                                        <path
                                            class="e45ee043-6ad4-4a67-994b-f82c256615d1" d="M3503.87,2663.88h-2.28a0.5,0.5,0,1,1,0-1h2.28A0.5,0.5,0,0,1,3503.87,2663.88Z" transform="translate(-3496.06 -2643.19)"/>
                                        <path
                                            class="e45ee043-6ad4-4a67-994b-f82c256615d1" d="M3531.18,2661.51h-2.28a0.5,0.5,0,0,1,0-1h2.28A0.5,0.5,0,0,1,3531.18,2661.51Z" transform="translate(-3496.06 -2643.19)"/>
                                        <circle
                                            class="e45ee043-6ad4-4a67-994b-f82c256615d1" cx="6.67" cy="33.94" r="1.14"/>
                                        <circle
                                            class="e45ee043-6ad4-4a67-994b-f82c256615d1" cx="33.98" cy="54.81" r="1.14"/>
                                        <path
                                            class="e45ee043-6ad4-4a67-994b-f82c256615d1" d="M3603.8,2691.16H3546a0.5,0.5,0,0,1-.5-0.5v-29.59a2.15,2.15,0,0,0-2.15-2.15h-10a0.5,0.5,0,0,1-.5-0.5v-14.73a0.5,0.5,0,0,1,.5-0.5h70.46a0.5,0.5,0,0,1,.5.5v47A0.5,0.5,0,0,1,3603.8,2691.16Zm-57.29-1h56.79v-46h-69.46v13.73h9.52a3.16,3.16,0,0,1,3.15,3.15v29.09Z" transform="translate(-3496.06 -2643.19)"/>
                                        <path
                                            class="e45ee043-6ad4-4a67-994b-f82c256615d1" d="M3541.41,2694.47h-23.18a0.5,0.5,0,0,1-.5-0.5v-29.83a0.5,0.5,0,0,1,.5-0.5h23.18a0.5,0.5,0,0,1,.5.5V2694A0.5,0.5,0,0,1,3541.41,2694.47Zm-22.68-1h22.18v-28.83h-22.18v28.83Z" transform="translate(-3496.06 -2643.19)"/>
                                    </svg>