<svg
                                        id="c775f93f-c3c3-41d4-9a77-890cfabbb023" data-name="Warstwa 1" xmlns="http://www.w3.org/2000/svg" width="61.39" height="61.39" viewBox="0 0 61.39 61.39">
                                        <g>
                                            <circle
                                                fill="none" stroke="#fff" stroke-miterlimit="10" cx="30.7" cy="30.7" r="30.2"/>
                                            <circle
                                                fill="none" stroke="#fff" stroke-miterlimit="10" cx="30.7" cy="30.7" r="18.3"/>
                                            <path
                                                fill="none" stroke="#fff" stroke-miterlimit="10" d="M3.5,43.8l10.2-6.3c0,0-1.3-3.1-1.3-6.7c0-4.2,1.5-7.2,1.5-7.2 L3.6,17.3c0,0-3.1,5.7-3.1,13.1C0.5,38.3,3.5,43.8,3.5,43.8z"/>
                                            <g>
                                                <defs>
                                                    <path
                                                        id="SVGID_1_" d="M3.5,17.2l10.2,6.3c0,0-1.3,3.1-1.3,6.7c0,4.2,1.5,7.2,1.5,7.2L3.6,43.7c0,0-3.1-5.7-3.1-13.1 C0.5,22.7,3.5,17.2,3.5,17.2z"/>
                                                </defs>
                                                <clipPath
                                                    id="SVGID_2_">
                                                    <use
                                                        xlinkHref="#SVGID_1_"  overflow="visible"/>
                                                </clipPath>
                                                <line
                                                    clip-path="url(#SVGID_2_)" fill="none" stroke="#fff" stroke-width="0.5" stroke-miterlimit="10" x1="6.2" y1="19.1" x2="1.2" y2="24.1"/>
                                                <line
                                                    clip-path="url(#SVGID_2_)" fill="none" stroke="#fff" stroke-width="0.5" stroke-miterlimit="10" x1="10.8" y1="21.9" x2="0.8" y2="31.9"/>
                                                <line
                                                    clip-path="url(#SVGID_2_)" fill="none" stroke="#fff" stroke-width="0.5" stroke-miterlimit="10" x1="12.4" y1="27.6" x2="1.6" y2="38.4"/>
                                                <line
                                                    clip-path="url(#SVGID_2_)" fill="none" stroke="#fff" stroke-width="0.5" stroke-miterlimit="10" x1="12.6" y1="34.7" x2="3.5" y2="43.8"/>
                                            </g>
                                            <path
                                                fill="none" stroke="#fff" stroke-miterlimit="10" d="M57.9,43.8l-10.2-6.3c0,0,1.3-3.1,1.3-6.7c0-4.2-1.4-7.2-1.4-7.2 l10.2-6.1c0,0,3.1,5.7,3.1,13.1C60.9,38.3,57.9,43.8,57.9,43.8z"/>
                                            <g>
                                                <defs>
                                                    <path
                                                        id="SVGID_3_" d="M57.9,43.7l-10.2-6.3c0,0,1.3-3.1,1.3-6.7c0-4.2-1.5-7.2-1.5-7.2l10.2-6.2c0,0,3.1,5.7,3.1,13.1 C60.9,38.2,57.9,43.7,57.9,43.7z"/>
                                                </defs>
                                                <clipPath
                                                    id="SVGID_4_">
                                                    <use
                                                        xlinkHref="#SVGID_3_"  overflow="visible"/>
                                                </clipPath>
                                                <line
                                                    clip-path="url(#SVGID_4_)" fill="none" stroke="#fff" stroke-width="0.5" stroke-miterlimit="10" x1="55.2" y1="41.7" x2="60.2" y2="36.8"/>
                                                <line
                                                    clip-path="url(#SVGID_4_)" fill="none" stroke="#fff" stroke-width="0.5" stroke-miterlimit="10" x1="50.6" y1="39" x2="60.6" y2="29"/>
                                                <line
                                                    clip-path="url(#SVGID_4_)" fill="none" stroke="#fff" stroke-width="0.5" stroke-miterlimit="10" x1="49" y1="33.3" x2="59.8" y2="22.5"/>
                                                <line
                                                    clip-path="url(#SVGID_4_)" fill="none" stroke="#fff" stroke-width="0.5" stroke-miterlimit="10" x1="48.8" y1="26.2" x2="57.9" y2="17.1"/>
                                            </g>
                                            <path
                                                fill="none" stroke="#fff" stroke-miterlimit="10" d="M44,57.8l-6.3-10.1c0,0-3.1,1.3-6.7,1.3c-4.2,0-7.3-1.4-7.3-1.4 l-6.1,10.1c0,0,5.7,3.1,13.1,3.1C38.6,60.9,44,57.8,44,57.8z"/>
                                            <g>
                                                <defs>
                                                    <path
                                                        id="SVGID_5_" d="M43.9,57.9l-6.3-10.2c0,0-3.1,1.3-6.7,1.3c-4.2,0-7.2-1.5-7.2-1.5l-6.2,10.2c0,0,5.7,3.1,13.1,3.1 C38.4,60.9,43.9,57.9,43.9,57.9z"/>
                                                </defs>
                                                <clipPath
                                                    id="SVGID_6_">
                                                    <use
                                                        xlinkHref="#SVGID_5_"  overflow="visible"/>
                                                </clipPath>
                                                <line
                                                    clip-path="url(#SVGID_6_)" fill="none" stroke="#fff" stroke-width="0.5" stroke-miterlimit="10" x1="42" y1="55.2" x2="37" y2="60.2"/>
                                                <line
                                                    clip-path="url(#SVGID_6_)" fill="none" stroke="#fff" stroke-width="0.5" stroke-miterlimit="10" x1="39.3" y1="50.6" x2="29.3" y2="60.6"/>
                                                <line
                                                    clip-path="url(#SVGID_6_)" fill="none" stroke="#fff" stroke-width="0.5" stroke-miterlimit="10" x1="33.5" y1="49" x2="22.8" y2="59.8"/>
                                                <line
                                                    clip-path="url(#SVGID_6_)" fill="none" stroke="#fff" stroke-width="0.5" stroke-miterlimit="10" x1="26.4" y1="48.8" x2="17.3" y2="57.9"/>
                                            </g>
                                            <path
                                                fill="none" stroke="#fff" stroke-miterlimit="10" d="M43.5,3.3l-6.3,10.1c0,0-3.1-1.3-6.7-1.3c-4.2,0-7.2,1.5-7.2,1.5 l-6-10c0,0,5.5-3.2,12.9-3.2C37.4,0.5,43.5,3.3,43.5,3.3z"/>
                                            <g>
                                                <defs>
                                                    <path
                                                        id="SVGID_7_" d="M17.2,3.7l6.1,10.2c0,0,3-1.6,6.7-1.6c4.2,0,7.2,1.4,7.2,1.4l6.1-10.1c0,0-5.7-3.2-13.1-3.2 C22.4,0.3,17.2,3.7,17.2,3.7z"/>
                                                </defs>
                                                <clipPath
                                                    id="SVGID_8_">
                                                    <use
                                                        xlinkHref="#SVGID_7_"  overflow="visible"/>
                                                </clipPath>
                                                <line
                                                    clip-path="url(#SVGID_8_)" fill="none" stroke="#fff" stroke-width="0.5" stroke-miterlimit="10" x1="18.9" y1="6" x2="23.8" y2="1"/>
                                                <line
                                                    clip-path="url(#SVGID_8_)" fill="none" stroke="#fff" stroke-width="0.5" stroke-miterlimit="10" x1="21.6" y1="10.6" x2="31.6" y2="0.6"/>
                                                <line
                                                    clip-path="url(#SVGID_8_)" fill="none" stroke="#fff" stroke-width="0.5" stroke-miterlimit="10" x1="27.3" y1="12.2" x2="38.1" y2="1.4"/>
                                                <line
                                                    clip-path="url(#SVGID_8_)" fill="none" stroke="#fff" stroke-width="0.5" stroke-miterlimit="10" x1="34.4" y1="12.4" x2="43.5" y2="3.3"/>
                                            </g>
                                        </g>
                                    </svg>