<svg id="3391af41-e6e8-4651-9979-573fda79d219" data-name="Warstwa 1" xmlns="http://www.w3.org/2000/svg" viewBox="0 0 14.21 14.21">
    <defs>
        <style>.a2f60c5d-504c-4853-882d-e9921feb851d{fill:#fff;}</style>
    </defs>
    <title>icon-facebook</title>
    <path id="5b6f3dc3-6551-49df-a4fd-338aa58c5338" data-name="White" class="a2f60c5d-504c-4853-882d-e9921feb851d" d="M13.82,0.4H1.18a0.78,0.78,0,0,0-.78.78V13.82a0.78,0.78,0,0,0,.78.78H8V9.1H6.13V7H8V5.38a2.58,2.58,0,0,1,2.76-2.83,15.19,15.19,0,0,1,1.65.08V4.54H11.26a0.89,0.89,0,0,0-1.06,1V7h2.12L12,9.1H10.2v5.5h3.62a0.78,0.78,0,0,0,.78-0.78V1.18A0.78,0.78,0,0,0,13.82.4Z" transform="translate(-0.4 -0.4)"/>
</svg>