<svg id="3915942a-c51d-40da-aa54-6907976667d9" data-name="Warstwa 1" xmlns="http://www.w3.org/2000/svg" width="16" height="16" viewBox="0 0 16 16">
    <title>icon-linkedin</title>
    <path d="M9,6.47v0l0,0H9Z"/>
    <path d="M3.63,15.29H0.2V5H3.63V15.29ZM1.92,3.57h0A1.79,1.79,0,1,1,1.94,0,1.79,1.79,0,1,1,1.92,3.57ZM16,15.29H12.57V9.77c0-1.39-.5-2.33-1.74-2.33A1.88,1.88,0,0,0,9.07,8.69,2.34,2.34,0,0,0,9,9.53v5.76H5.53s0-9.35,0-10.32H9V6.44a3.41,3.41,0,0,1,3.09-1.7C14.31,4.73,16,6.21,16,9.38v5.92Z"/>
</svg>