<?xml version="1.0" encoding="utf-8"?>
<svg
    version="1.1" id="de271766-c397-46e9-8e1b-bd39495b4181"
    xmlns="http://www.w3.org/2000/svg" 
    xmlns:xlink="http://www.w3.org/1999/xlink" 
    x="0px" 
    y="0px" 
    viewBox="0 0 15 12"
    style="enable-background:new 0 0 15 12;" 
    xml:space="preserve">
    <style type="text/css">
        .icon-twitter__st0{fill:#FFFFFF;}
    </style>
    <title>icon-twitter</title>
    <path 
        class="icon-twitter__st0" 
        d="M13.4,3c0,0.1,0,0.3,0,0.4c0,4.7-3.8,8.6-8.5,8.6c0,0-0.1,0-0.1,0c-1.6,0-3.3-0.5-4.7-1.4c0.2,0,0.5,0,0.7,0
            c1.4,0,2.7-0.4,3.8-1.2c-1.3,0-2.4-0.9-2.8-2.1c0.2,0,0.4,0.1,0.6,0.1c0.3,0,0.5,0,0.8-0.1c-1.4-0.3-2.5-1.5-2.4-3l0,0
            c0.4,0.2,0.9,0.4,1.4,0.4C0.8,3.7,0.3,2,1.1,0.6c1.5,1.9,3.8,3,6.2,3.1C6.9,2.1,7.9,0.5,9.4,0c1.1-0.3,2.4,0,3.1,0.9
            c0.7-0.1,1.3-0.4,1.9-0.7c-0.2,0.7-0.7,1.3-1.3,1.7c0.6-0.1,1.2-0.2,1.7-0.5C14.5,2,14,2.6,13.4,3z"/>
</svg>